<svg id="visual" viewBox="0 0 900 600" width="900" height="600" xmlns="http://www.w3.org/2000/svg" xmlns:xlink="http://www.w3.org/1999/xlink" version="1.1"><rect x="0" y="0" width="900" height="600" fill="#171717"></rect><path d="M0 444L21.5 443.2C43 442.3 86 440.7 128.8 431C171.7 421.3 214.3 403.7 257.2 392.3C300 381 343 376 385.8 373.2C428.7 370.3 471.3 369.7 514.2 381.7C557 393.7 600 418.3 642.8 422.3C685.7 426.3 728.3 409.7 771.2 395.3C814 381 857 369 878.5 363L900 357L900 601L878.5 601C857 601 814 601 771.2 601C728.3 601 685.7 601 642.8 601C600 601 557 601 514.2 601C471.3 601 428.7 601 385.8 601C343 601 300 601 257.2 601C214.3 601 171.7 601 128.8 601C86 601 43 601 21.5 601L0 601Z" fill="#fa7268"></path><path d="M0 457L21.5 453.5C43 450 86 443 128.8 435.3C171.7 427.7 214.3 419.3 257.2 418.2C300 417 343 423 385.8 420C428.7 417 471.3 405 514.2 411.8C557 418.7 600 444.3 642.8 457.8C685.7 471.3 728.3 472.7 771.2 472C814 471.3 857 468.7 878.5 467.3L900 466L900 601L878.5 601C857 601 814 601 771.2 601C728.3 601 685.7 601 642.8 601C600 601 557 601 514.2 601C471.3 601 428.7 601 385.8 601C343 601 300 601 257.2 601C214.3 601 171.7 601 128.8 601C86 601 43 601 21.5 601L0 601Z" fill="#ef5f67"></path><path d="M0 466L21.5 467C43 468 86 470 128.8 477.5C171.7 485 214.3 498 257.2 504.3C300 510.7 343 510.3 385.8 508C428.7 505.7 471.3 501.3 514.2 496.5C557 491.7 600 486.3 642.8 484C685.7 481.7 728.3 482.3 771.2 481.3C814 480.3 857 477.7 878.5 476.3L900 475L900 601L878.5 601C857 601 814 601 771.2 601C728.3 601 685.7 601 642.8 601C600 601 557 601 514.2 601C471.3 601 428.7 601 385.8 601C343 601 300 601 257.2 601C214.3 601 171.7 601 128.8 601C86 601 43 601 21.5 601L0 601Z" fill="#e34c67"></path><path d="M0 495L21.5 500C43 505 86 515 128.8 519.7C171.7 524.3 214.3 523.7 257.2 524.8C300 526 343 529 385.8 523.5C428.7 518 471.3 504 514.2 499.7C557 495.3 600 500.7 642.8 500.5C685.7 500.3 728.3 494.7 771.2 491.7C814 488.7 857 488.3 878.5 488.2L900 488L900 601L878.5 601C857 601 814 601 771.2 601C728.3 601 685.7 601 642.8 601C600 601 557 601 514.2 601C471.3 601 428.7 601 385.8 601C343 601 300 601 257.2 601C214.3 601 171.7 601 128.8 601C86 601 43 601 21.5 601L0 601Z" fill="#d53867"></path><path d="M0 552L21.5 553.3C43 554.7 86 557.3 128.8 555.8C171.7 554.3 214.3 548.7 257.2 545.8C300 543 343 543 385.8 547.8C428.7 552.7 471.3 562.3 514.2 561.7C557 561 600 550 642.8 546C685.7 542 728.3 545 771.2 544.5C814 544 857 540 878.5 538L900 536L900 601L878.5 601C857 601 814 601 771.2 601C728.3 601 685.7 601 642.8 601C600 601 557 601 514.2 601C471.3 601 428.7 601 385.8 601C343 601 300 601 257.2 601C214.3 601 171.7 601 128.8 601C86 601 43 601 21.5 601L0 601Z" fill="#c62368"></path></svg>