<svg id="visual" viewBox="0 0 900 600" width="900" height="600" xmlns="http://www.w3.org/2000/svg" xmlns:xlink="http://www.w3.org/1999/xlink" version="1.1"><rect x="0" y="0" width="900" height="600" fill="#e2eaef"></rect><path d="M0 425L21.5 415.8C43 406.7 86 388.3 128.8 381.2C171.7 374 214.3 378 257.2 390.3C300 402.7 343 423.3 385.8 419C428.7 414.7 471.3 385.3 514.2 383C557 380.7 600 405.3 642.8 418.2C685.7 431 728.3 432 771.2 419.3C814 406.7 857 380.3 878.5 367.2L900 354L900 601L878.5 601C857 601 814 601 771.2 601C728.3 601 685.7 601 642.8 601C600 601 557 601 514.2 601C471.3 601 428.7 601 385.8 601C343 601 300 601 257.2 601C214.3 601 171.7 601 128.8 601C86 601 43 601 21.5 601L0 601Z" fill="#fa7268"></path><path d="M0 479L21.5 471.3C43 463.7 86 448.3 128.8 441.5C171.7 434.7 214.3 436.3 257.2 433.2C300 430 343 422 385.8 417.7C428.7 413.3 471.3 412.7 514.2 415.5C557 418.3 600 424.7 642.8 434C685.7 443.3 728.3 455.7 771.2 463C814 470.3 857 472.7 878.5 473.8L900 475L900 601L878.5 601C857 601 814 601 771.2 601C728.3 601 685.7 601 642.8 601C600 601 557 601 514.2 601C471.3 601 428.7 601 385.8 601C343 601 300 601 257.2 601C214.3 601 171.7 601 128.8 601C86 601 43 601 21.5 601L0 601Z" fill="#ef5f67"></path><path d="M0 438L21.5 445.5C43 453 86 468 128.8 473.7C171.7 479.3 214.3 475.7 257.2 471.3C300 467 343 462 385.8 457.5C428.7 453 471.3 449 514.2 458C557 467 600 489 642.8 489.7C685.7 490.3 728.3 469.7 771.2 469C814 468.3 857 487.7 878.5 497.3L900 507L900 601L878.5 601C857 601 814 601 771.2 601C728.3 601 685.7 601 642.8 601C600 601 557 601 514.2 601C471.3 601 428.7 601 385.8 601C343 601 300 601 257.2 601C214.3 601 171.7 601 128.8 601C86 601 43 601 21.5 601L0 601Z" fill="#e34c67"></path><path d="M0 526L21.5 523.8C43 521.7 86 517.3 128.8 510.3C171.7 503.3 214.3 493.7 257.2 490C300 486.3 343 488.7 385.8 491.5C428.7 494.3 471.3 497.7 514.2 501C557 504.3 600 507.7 642.8 507.3C685.7 507 728.3 503 771.2 507.5C814 512 857 525 878.5 531.5L900 538L900 601L878.5 601C857 601 814 601 771.2 601C728.3 601 685.7 601 642.8 601C600 601 557 601 514.2 601C471.3 601 428.7 601 385.8 601C343 601 300 601 257.2 601C214.3 601 171.7 601 128.8 601C86 601 43 601 21.5 601L0 601Z" fill="#d53867"></path><path d="M0 556L21.5 553.3C43 550.7 86 545.3 128.8 544.3C171.7 543.3 214.3 546.7 257.2 549.3C300 552 343 554 385.8 554.7C428.7 555.3 471.3 554.7 514.2 552.8C557 551 600 548 642.8 549C685.7 550 728.3 555 771.2 556.8C814 558.7 857 557.3 878.5 556.7L900 556L900 601L878.5 601C857 601 814 601 771.2 601C728.3 601 685.7 601 642.8 601C600 601 557 601 514.2 601C471.3 601 428.7 601 385.8 601C343 601 300 601 257.2 601C214.3 601 171.7 601 128.8 601C86 601 43 601 21.5 601L0 601Z" fill="#c62368"></path></svg>